<svg width="1920" height="1080" viewBox="0 0 1920 1080" fill="none" xmlns="http://www.w3.org/2000/svg">
<mask id="mask0_25_104" style="mask-type:alpha" maskUnits="userSpaceOnUse" x="0" y="0" width="1920" height="1080">
<rect width="1920" height="1080" fill="#D9D9D9"/>
</mask>
<g mask="url(#mask0_25_104)">
<path d="M751 879C285 627.8 8.16666 619.667 -72 647L-154 1152.5L2072.5 1120L2014 594C1787.17 793.667 1217 1130.2 751 879Z" fill="#002471"/>
<path d="M751.5 948C285.5 696.8 8.66666 688.667 -71.5 716L-153.5 1221.5L2073 1189L2014.5 663C1787.67 862.667 1217.5 1199.2 751.5 948Z" fill="#00319C"/>
<path d="M751 1061C285 809.8 8.16666 801.667 -72 829L-154 1334.5L2072.5 1302L2014 776C1787.17 975.667 1217 1312.2 751 1061Z" fill="#0040CA"/>
</g>
</svg>
