<svg width="16" height="16" viewBox="0 0 16 16" fill="none" xmlns="http://www.w3.org/2000/svg">
<g clip-path="url(#clip0_1_34)">
<path d="M8 16C9.1 16 10 15.1 10 14H6C6 15.1 6.9 16 8 16ZM9 1.09999C9.1 0.599995 8.7 0.0999946 8.1 -5.45103e-06C7.5 -0.100005 7.1 0.299995 7 0.899995C7 0.999995 7 0.999995 7 1.09999C4.7 1.59999 3 3.59999 3 5.99999C3 7.09999 2.5 12 1 13H15C13.5 12 13 7.09999 13 5.99999C13 3.59999 11.3 1.59999 9 1.09999Z" fill="white"/>
<path d="M12.9 15.3C14.3359 15.3 15.5 14.1359 15.5 12.7C15.5 11.2641 14.3359 10.1 12.9 10.1C11.464 10.1 10.3 11.2641 10.3 12.7C10.3 14.1359 11.464 15.3 12.9 15.3Z" fill="#FF0000"/>
</g>
<defs>
<clipPath id="clip0_1_34">
<rect width="16" height="16" fill="white"/>
</clipPath>
</defs>
</svg>
